<mxfile host="app.diagrams.net" modified="2024-02-17T13:34:51.348Z" agent="Mozilla/5.0 (Windows NT 10.0; Win64; x64) AppleWebKit/537.36 (KHTML, like Gecko) Chrome/121.0.0.0 Safari/537.36" etag="h4N0VuwCjo2Jq1m911mH" version="23.1.5" type="device">
  <diagram name="Page-1" id="189t1yNu4JH7MRvZA3bf">
    <mxGraphModel dx="880" dy="434" grid="1" gridSize="10" guides="1" tooltips="1" connect="1" arrows="1" fold="1" page="1" pageScale="1" pageWidth="827" pageHeight="1169" math="0" shadow="0">
      <root>
        <mxCell id="0" />
        <mxCell id="1" parent="0" />
        <mxCell id="Ue54E5nuP_CfhXGpYR37-1" value="&lt;font style=&quot;font-size: 14px;&quot;&gt;&lt;b&gt;&lt;i&gt;Client&lt;/i&gt;&lt;/b&gt;&lt;/font&gt;" style="rounded=1;whiteSpace=wrap;html=1;" vertex="1" parent="1">
          <mxGeometry x="220" y="100" width="120" height="60" as="geometry" />
        </mxCell>
        <mxCell id="Ue54E5nuP_CfhXGpYR37-2" value="&lt;font style=&quot;font-size: 14px;&quot;&gt;&lt;b&gt;&lt;i&gt;Application&lt;/i&gt;&lt;/b&gt;&lt;/font&gt;" style="rounded=1;whiteSpace=wrap;html=1;" vertex="1" parent="1">
          <mxGeometry x="540" y="100" width="120" height="60" as="geometry" />
        </mxCell>
        <mxCell id="Ue54E5nuP_CfhXGpYR37-3" value="" style="endArrow=none;html=1;rounded=0;entryX=0.5;entryY=1;entryDx=0;entryDy=0;" edge="1" parent="1" target="Ue54E5nuP_CfhXGpYR37-1">
          <mxGeometry width="50" height="50" relative="1" as="geometry">
            <mxPoint x="280" y="450" as="sourcePoint" />
            <mxPoint x="330" y="230" as="targetPoint" />
          </mxGeometry>
        </mxCell>
        <mxCell id="Ue54E5nuP_CfhXGpYR37-4" value="" style="endArrow=none;html=1;rounded=0;entryX=0.5;entryY=1;entryDx=0;entryDy=0;" edge="1" parent="1">
          <mxGeometry width="50" height="50" relative="1" as="geometry">
            <mxPoint x="600" y="450" as="sourcePoint" />
            <mxPoint x="599.5" y="160" as="targetPoint" />
          </mxGeometry>
        </mxCell>
        <mxCell id="Ue54E5nuP_CfhXGpYR37-6" value="" style="endArrow=classic;html=1;rounded=0;" edge="1" parent="1">
          <mxGeometry width="50" height="50" relative="1" as="geometry">
            <mxPoint x="300" y="200" as="sourcePoint" />
            <mxPoint x="580" y="200" as="targetPoint" />
          </mxGeometry>
        </mxCell>
        <mxCell id="Ue54E5nuP_CfhXGpYR37-7" value="&lt;i&gt;&lt;b&gt;user/login with username and password&lt;/b&gt;&lt;/i&gt;" style="text;html=1;align=center;verticalAlign=middle;resizable=0;points=[];autosize=1;strokeColor=none;fillColor=none;" vertex="1" parent="1">
          <mxGeometry x="316" y="178" width="250" height="30" as="geometry" />
        </mxCell>
        <mxCell id="Ue54E5nuP_CfhXGpYR37-8" value="" style="endArrow=classic;html=1;rounded=0;" edge="1" parent="1">
          <mxGeometry width="50" height="50" relative="1" as="geometry">
            <mxPoint x="580" y="220" as="sourcePoint" />
            <mxPoint x="300" y="220" as="targetPoint" />
          </mxGeometry>
        </mxCell>
        <mxCell id="Ue54E5nuP_CfhXGpYR37-9" value="&lt;i&gt;&lt;b&gt;&amp;lt;xxxxxx -Generated Token - xxxxxx&amp;gt;&lt;br&gt;Returns a Token to client&lt;/b&gt;&lt;/i&gt;" style="text;html=1;align=center;verticalAlign=middle;resizable=0;points=[];autosize=1;strokeColor=none;fillColor=none;" vertex="1" parent="1">
          <mxGeometry x="332" y="214" width="230" height="40" as="geometry" />
        </mxCell>
        <mxCell id="Ue54E5nuP_CfhXGpYR37-10" value="&lt;b&gt;&lt;i&gt;Application/Server will generate the Token and send to the client. At the same it stores the token and client details in memory/DB&lt;/i&gt;&lt;/b&gt;" style="text;html=1;align=center;verticalAlign=middle;whiteSpace=wrap;rounded=0;" vertex="1" parent="1">
          <mxGeometry x="620" y="184" width="200" height="30" as="geometry" />
        </mxCell>
        <mxCell id="Ue54E5nuP_CfhXGpYR37-11" value="&lt;b&gt;&lt;i&gt;Client will receive the Token after successful authentication in a header/query string&lt;/i&gt;&lt;/b&gt;" style="text;html=1;align=center;verticalAlign=middle;whiteSpace=wrap;rounded=0;" vertex="1" parent="1">
          <mxGeometry x="70" y="200" width="190" height="30" as="geometry" />
        </mxCell>
        <mxCell id="Ue54E5nuP_CfhXGpYR37-14" value="" style="endArrow=classic;html=1;rounded=0;" edge="1" parent="1">
          <mxGeometry width="50" height="50" relative="1" as="geometry">
            <mxPoint x="310" y="330" as="sourcePoint" />
            <mxPoint x="580" y="330" as="targetPoint" />
          </mxGeometry>
        </mxCell>
        <mxCell id="Ue54E5nuP_CfhXGpYR37-15" value="" style="endArrow=classic;html=1;rounded=0;" edge="1" parent="1">
          <mxGeometry width="50" height="50" relative="1" as="geometry">
            <mxPoint x="580" y="356" as="sourcePoint" />
            <mxPoint x="310" y="356" as="targetPoint" />
          </mxGeometry>
        </mxCell>
        <mxCell id="Ue54E5nuP_CfhXGpYR37-16" value="&lt;b&gt;&lt;i&gt;user/myAccount&lt;br&gt;&lt;span style=&quot;border-color: var(--border-color);&quot;&gt;&lt;span style=&quot;border-color: var(--border-color);&quot;&gt;&amp;lt;xxxxxx -Generated Token - xxxxxx&amp;gt;&lt;/span&gt;&lt;/span&gt;&amp;nbsp;&lt;/i&gt;&lt;/b&gt;" style="text;html=1;align=center;verticalAlign=middle;whiteSpace=wrap;rounded=0;" vertex="1" parent="1">
          <mxGeometry x="340" y="300" width="220" height="30" as="geometry" />
        </mxCell>
        <mxCell id="Ue54E5nuP_CfhXGpYR37-17" value="&lt;b&gt;&lt;i&gt;Client system has to make sure&amp;nbsp; to send the same token value on all further request to the backend server&amp;nbsp;&lt;/i&gt;&lt;/b&gt;" style="text;html=1;align=center;verticalAlign=middle;whiteSpace=wrap;rounded=0;" vertex="1" parent="1">
          <mxGeometry x="70" y="334" width="190" height="30" as="geometry" />
        </mxCell>
        <mxCell id="Ue54E5nuP_CfhXGpYR37-18" value="&lt;b&gt;&lt;i&gt;When Client makes a request with the token, the server will validate the token and return the protected resources if it is vallid&amp;nbsp;&lt;/i&gt;&lt;/b&gt;" style="text;html=1;align=center;verticalAlign=middle;whiteSpace=wrap;rounded=0;" vertex="1" parent="1">
          <mxGeometry x="627" y="334" width="180" height="30" as="geometry" />
        </mxCell>
      </root>
    </mxGraphModel>
  </diagram>
</mxfile>
